<?xml version="1.0" encoding="iso-8859-1"?>
<!-- Generator: Adobe Illustrator 21.0.0, SVG Export Plug-In . SVG Version: 6.00 Build 0)  -->
<svg version="1.1" id="Layer_1" xmlns="http://www.w3.org/2000/svg" xmlns:xlink="http://www.w3.org/1999/xlink" x="0px" y="0px"
	 viewBox="1015 141 512 512" style="enable-background:new 1015 141 512 512;" xml:space="preserve">
<path style="fill:#17A0FF;" d="M1524.688,398.766c0,138.141-113.203,252.326-251.344,252.326S1022,536.907,1022,398.766
	c0-66.567,27.097-130.189,73.636-176.726h-22.091c-8.248,0-14.727-6.481-14.727-14.727c0-8.248,6.479-14.727,14.727-14.727h58.909
	c8.248,0,14.727,6.479,14.727,14.727v58.909c0,8.246-6.479,14.727-14.727,14.727c-8.248,0-14.727-6.481-14.727-14.727v-24.743
	c-41.824,41.237-66.272,98.084-66.272,157.287c0,121.941,99.949,222.872,221.89,222.872s221.89-100.93,221.89-222.872
	s-99.949-220.908-221.89-220.908c-8.248,0-14.727-6.481-14.727-14.727c0-8.248,6.479-14.727,14.727-14.727
	C1411.485,148.404,1524.688,260.625,1524.688,398.766z"/>
<path style="fill:#17ACE8;" d="M1405.889,398.766c0,36.523-14.727,69.807-38.88,93.665c-23.858,24.153-57.141,38.88-93.665,38.88
	c-73.341,0-133.527-59.203-133.527-132.545c0-36.523,14.727-69.807,38.88-93.665c23.858-24.153,58.123-38.88,94.647-38.88
	s69.807,14.727,93.665,38.88C1391.162,328.959,1405.889,362.243,1405.889,398.766z"/>
<path style="fill:#1689FC;" d="M1405.889,398.766c0,36.523-14.727,69.807-38.88,93.665c-23.858,24.153-57.141,38.88-93.665,38.88
	v-265.09c36.523,0,69.807,14.727,93.665,38.88C1391.162,328.959,1405.889,362.243,1405.889,398.766z"/>
<g>
	<path style="fill:#1DE8F1;" d="M1288.071,251.494v29.454c0,8.246-6.479,14.727-14.727,14.727s-14.727-6.481-14.727-14.727v-29.454
		c0-8.248,6.479-14.727,14.727-14.727S1288.071,243.246,1288.071,251.494z"/>
	<path style="fill:#1DE8F1;" d="M1288.071,516.584v29.454c0,8.246-6.479,14.727-14.727,14.727s-14.727-6.481-14.727-14.727v-29.454
		c0-8.248,6.479-14.727,14.727-14.727S1288.071,508.336,1288.071,516.584z"/>
	<path style="fill:#1DE8F1;" d="M1154.545,413.494h-29.454c-8.14,0-14.727-6.587-14.727-14.727s6.587-14.727,14.727-14.727h29.454
		c8.14,0,14.727,6.587,14.727,14.727C1169.272,406.907,1162.685,413.494,1154.545,413.494z"/>
</g>
<path style="fill:#1BD9DE;" d="M1420.616,413.494h-29.454c-8.14,0-14.727-6.587-14.727-14.727s6.587-14.727,14.727-14.727h29.454
	c8.14,0,14.727,6.587,14.727,14.727C1435.343,406.907,1428.756,413.494,1420.616,413.494z"/>
<path style="fill:#1DE8F1;" d="M1157.809,513.319c-5.752-5.752-5.752-15.073,0-20.825l20.825-20.825
	c5.752-5.752,15.073-5.752,20.825,0c5.752,5.752,5.752,15.073,0,20.825l-20.825,20.825
	C1172.882,519.072,1163.563,519.072,1157.809,513.319z"/>
<g>
	<path style="fill:#1BD9DE;" d="M1346.247,325.864c-5.752-5.752-5.752-15.073,0-20.825l20.825-20.825
		c5.752-5.752,15.073-5.752,20.825,0s5.752,15.073,0,20.825l-20.825,20.825C1361.318,331.617,1351.999,331.617,1346.247,325.864z"/>
	<path style="fill:#1BD9DE;" d="M1367.072,513.319l-20.825-20.825c-5.752-5.752-5.752-15.073,0-20.825
		c5.752-5.752,15.073-5.752,20.825,0l20.825,20.825c5.752,5.752,5.752,15.073,0,20.825
		C1382.144,519.072,1372.824,519.072,1367.072,513.319z"/>
</g>
<path style="fill:#1DE8F1;" d="M1178.635,325.864l-20.825-20.825c-5.752-5.752-5.752-15.073,0-20.825s15.073-5.752,20.825,0
	l20.825,20.825c5.752,5.752,5.752,15.073,0,20.825C1193.707,331.617,1184.388,331.617,1178.635,325.864z"/>
<g>
	<path style="fill:#1BD9DE;" d="M1288.071,516.584v29.454c0,8.246-6.479,14.727-14.727,14.727v-58.909
		C1281.592,501.857,1288.071,508.336,1288.071,516.584z"/>
	<path style="fill:#1BD9DE;" d="M1288.071,251.494v29.454c0,8.246-6.479,14.727-14.727,14.727v-58.909
		C1281.592,236.767,1288.071,243.246,1288.071,251.494z"/>
</g>
<path style="fill:#E1E4FB;" d="M1313.107,438.529c-5.3,5.893-15.316,5.893-20.617,0l-19.145-19.144l-10.308-10.31
	c-2.947-2.65-4.419-6.479-4.419-10.308v-58.909c0-8.248,6.479-14.727,14.727-14.727s14.727,6.479,14.727,14.727v52.722
	l25.035,25.331C1318.998,423.507,1318.998,432.932,1313.107,438.529z"/>
<path style="fill:#C5C9F7;" d="M1313.107,438.529c-5.3,5.893-15.316,5.893-20.617,0l-19.145-19.144V325.13
	c8.248,0,14.727,6.479,14.727,14.727v52.722l25.035,25.331C1318.998,423.507,1318.998,432.932,1313.107,438.529z"/>
<path style="fill:#17A0FF;" d="M1524.688,398.766c0,138.141-113.203,252.326-251.344,252.326v-29.454
	c121.941,0,221.89-100.93,221.89-222.872s-99.949-220.908-221.89-220.908v-29.454
	C1411.485,148.404,1524.688,260.625,1524.688,398.766z"/>
<path style="fill:#1DE8F1;" d="M1273.344,236.767c-89.248,0-162.981,72.751-162.981,161.999
	c0,89.246,73.733,161.999,162.981,161.999s161.999-72.753,161.999-161.999C1435.343,309.519,1362.592,236.767,1273.344,236.767z
	 M1273.344,531.311c-73.089,0-133.527-59.456-133.527-132.545s60.438-132.545,133.527-132.545s132.545,59.456,132.545,132.545
	S1346.433,531.311,1273.344,531.311z"/>
<path style="fill:#1BD9DE;" d="M1273.344,236.767v29.454c73.089,0,132.545,59.456,132.545,132.545s-59.456,132.545-132.545,132.545
	v29.454c89.248,0,161.999-72.753,161.999-161.999C1435.343,309.519,1362.592,236.767,1273.344,236.767z"/>
</svg>
