<?xml version="1.0" encoding="iso-8859-1"?>
<!-- Generator: Adobe Illustrator 21.0.0, SVG Export Plug-In . SVG Version: 6.00 Build 0)  -->
<svg version="1.1" id="Layer_1" xmlns="http://www.w3.org/2000/svg" xmlns:xlink="http://www.w3.org/1999/xlink" x="0px" y="0px"
	 viewBox="-49 141 512 512" style="enable-background:new -49 141 512 512;" xml:space="preserve">
<path style="fill:#FF7058;" d="M457.776,397c0,4.18,0,9.404,0,13.584c-2.09,34.482-10.449,65.829-24.033,95.086
	c-40.751,83.592-126.433,142.106-225.698,142.106C69.073,647.776-42.731,534.927-42.731,397
	c0-138.971,111.804-250.776,250.775-250.776C345.971,146.224,457.776,258.029,457.776,397z"/>
<circle style="fill:#FFFFFF;" cx="207" cy="397" r="198.531"/>
<circle style="fill:#FF7058;" cx="207" cy="397" r="147.331"/>
<circle style="fill:#FFFFFF;" cx="207" cy="397" r="95.086"/>
<circle style="fill:#FF7058;" cx="207" cy="397" r="42.841"/>
<path style="opacity:0.2;fill:#334A5E;enable-background:new    ;" d="M457.776,410.584c-2.09,34.482-10.449,65.829-24.033,95.086
	l-36.571-9.404l-10.449-35.527l-182.857-49.11c-9.404-2.09-14.629-11.494-11.494-20.898c2.09-9.404,11.494-14.629,20.898-11.494
	l181.812,49.11l27.167-26.122L457.776,410.584z"/>
<path style="fill:#40596B;" d="M357.465,245.49c-6.269-6.269-17.763-6.269-24.033,0L196.551,382.371
	c-6.269,6.269-6.269,17.763,0,24.033l0,0c6.269,6.269,17.763,6.269,24.033,0l136.882-136.882
	C363.735,263.253,363.735,251.759,357.465,245.49z"/>
<polygon style="fill:#45FF93;stroke:#000000;stroke-width:0.25;stroke-miterlimit:10;" points="396.126,206.829 334.478,267.433 
	320.894,212.053 382.543,150.404 "/>
<polygon style="fill:#45FF93;stroke:#000000;stroke-width:0.25;stroke-miterlimit:10;" points="390.902,281.016 451.506,220.412 
	396.126,206.829 334.478,267.433 "/>
</svg>
