<?xml version="1.0" encoding="iso-8859-1"?>
<!-- Generator: Adobe Illustrator 19.0.0, SVG Export Plug-In . SVG Version: 6.00 Build 0)  -->
<svg version="1.1" id="Layer_1" xmlns="http://www.w3.org/2000/svg" xmlns:xlink="http://www.w3.org/1999/xlink" x="0px" y="0px"
	 viewBox="0 0 503.467 503.467" style="enable-background:new 0 0 503.467 503.467;" xml:space="preserve">
<g transform="translate(1 7)">
	<path style="fill:#FFD0A1;" d="M71.533,202.067v68.267c-68.267-25.6-68.267-68.267-68.267-68.267V133.8
		C3.267,133.8,3.267,176.467,71.533,202.067"/>
	<path style="fill:#FFD0A1;" d="M498.2,270.333V338.6c0,0,0,42.667-68.267,68.267V338.6C498.2,313,498.2,270.333,498.2,270.333"/>
	<path style="fill:#FFD0A1;" d="M250.733,253.267v68.267c-68.267-25.6-68.267-68.267-68.267-68.267V185
		C182.467,185,182.467,227.667,250.733,253.267"/>
	<path style="fill:#FFD0A1;" d="M250.733,321.533V389.8c-68.267-25.6-68.267-68.267-68.267-68.267v-68.267
		C182.467,253.267,182.467,295.933,250.733,321.533"/>
	<path style="fill:#FFD0A1;" d="M71.533,270.333V338.6C3.267,313,3.267,270.333,3.267,270.333v-68.267
		C3.267,202.067,3.267,244.733,71.533,270.333"/>
	<path style="fill:#FFD0A1;" d="M498.2,202.067v68.267c0,0,0,42.667-68.267,68.267v-68.267
		C498.2,244.733,498.2,202.067,498.2,202.067"/>
	<path style="fill:#FFD0A1;" d="M498.2,133.8v68.267c0,0,0,42.667-68.267,68.267v-68.267C498.2,176.467,498.2,133.8,498.2,133.8"/>
	<path style="fill:#FFD0A1;" d="M429.933,338.6v68.267c-68.267-25.6-68.267-68.267-68.267-68.267v-68.267
		C361.667,270.333,361.667,313,429.933,338.6"/>
	<path style="fill:#FFD0A1;" d="M429.933,270.333V338.6c-68.267-25.6-68.267-68.267-68.267-68.267v-68.267
		C361.667,202.067,361.667,244.733,429.933,270.333"/>
	<path style="fill:#FFD0A1;" d="M429.933,202.067v68.267c-68.267-25.6-68.267-68.267-68.267-68.267V133.8
		C361.667,133.8,361.667,176.467,429.933,202.067"/>
	<path style="fill:#FFD0A1;" d="M71.533,338.6v68.267C3.267,381.267,3.267,338.6,3.267,338.6v-68.267
		C3.267,270.333,3.267,313,71.533,338.6"/>
	<path style="fill:#FFD0A1;" d="M250.733,185v68.267C182.467,227.667,182.467,185,182.467,185v-68.267
		C182.467,116.733,182.467,159.4,250.733,185"/>
	<path style="fill:#FFD0A1;" d="M250.733,116.733V185c-68.267-25.6-68.267-68.267-68.267-68.267V48.467
		C182.467,48.467,182.467,91.133,250.733,116.733"/>
	<path style="fill:#FFD0A1;" d="M319,253.267v68.267c0,0,0,42.667-68.267,68.267v-68.267C319,295.933,319,253.267,319,253.267"/>
	<path style="fill:#FFD0A1;" d="M319,185v68.267c0,0,0,42.667-68.267,68.267v-68.267C319,227.667,319,185,319,185"/>
	<path style="fill:#FFD0A1;" d="M319,116.733V185c0,0,0,42.667-68.267,68.267V185C319,159.4,319,116.733,319,116.733"/>
	<path style="fill:#FFD0A1;" d="M139.8,270.333V338.6c0,0,0,42.667-68.267,68.267V338.6C139.8,313,139.8,270.333,139.8,270.333"/>
	<path style="fill:#FFD0A1;" d="M319,48.467v68.267c0,0,0,42.667-68.267,68.267v-68.267C319,91.133,319,48.467,319,48.467"/>
	<path style="fill:#FFD0A1;" d="M139.8,202.067v68.267c0,0,0,42.667-68.267,68.267v-68.267
		C139.8,244.733,139.8,202.067,139.8,202.067"/>
	<path style="fill:#FFD0A1;" d="M139.8,133.8v68.267c0,0,0,42.667-68.267,68.267v-68.267C139.8,176.467,139.8,133.8,139.8,133.8"/>
</g>
<path style="fill:#51565F;" d="M499.2,503.467h-17.067c-2.56,0-4.267-1.707-4.267-4.267c0-2.56,1.707-4.267,4.267-4.267H499.2
	c2.56,0,4.267,1.707,4.267,4.267C503.467,501.76,501.76,503.467,499.2,503.467z M448,503.467H140.8c-2.56,0-4.267-1.707-4.267-4.267
	c0-2.56,1.707-4.267,4.267-4.267h106.667V399.36c-67.413-26.453-68.267-69.12-68.267-70.827V38.4c0-2.56,1.707-4.267,4.267-4.267
	s4.267,1.707,4.267,4.267v17.067c0,1.707,0.853,37.547,59.733,62.293V4.267c0-2.56,1.707-4.267,4.267-4.267
	C254.293,0,256,1.707,256,4.267V117.76c58.88-23.893,59.733-60.587,59.733-62.293V38.4c0-2.56,1.707-4.267,4.267-4.267
	c2.56,0,4.267,1.707,4.267,4.267v290.133c0,1.707-0.853,44.373-68.267,70.827v95.573h170.667v-78.507
	c-67.413-26.453-68.267-69.12-68.267-70.827V123.733c0-2.56,1.707-4.267,4.267-4.267s4.267,1.707,4.267,4.267V140.8
	c0,1.707,0.853,37.547,59.733,62.293V89.6c0-2.56,1.707-4.267,4.267-4.267S435.2,87.04,435.2,89.6v113.493
	c58.88-23.893,59.733-60.587,59.733-62.293v-17.067c0-2.56,1.707-4.267,4.267-4.267c2.56,0,4.267,1.707,4.267,4.267V345.6
	c0,1.707-0.853,44.373-68.267,70.827v78.507H448c2.56,0,4.267,1.707,4.267,4.267C452.267,501.76,450.56,503.467,448,503.467z
	 M366.933,345.6c0,1.707,0.853,37.547,59.733,62.293v-58.88c-34.133-13.653-51.2-30.72-59.733-45.227V345.6z M435.2,348.16v58.88
	c58.88-23.893,59.733-60.587,59.733-62.293V302.08C486.4,317.44,469.333,335.36,435.2,348.16z M256,331.093v58.88
	c58.88-23.893,59.733-60.587,59.733-62.293v-42.667C307.2,300.373,290.133,318.293,256,331.093z M187.733,328.533
	c0,1.707,0.853,37.547,59.733,62.293v-58.88c-34.133-13.653-51.2-30.72-59.733-45.227V328.533z M366.933,277.333
	c0,1.707,0.853,37.547,59.733,62.293v-58.88c-34.133-13.653-51.2-30.72-59.733-45.227V277.333z M435.2,279.893v58.88
	c58.88-23.893,59.733-60.587,59.733-62.293v-42.667C486.4,249.173,469.333,267.093,435.2,279.893z M256,262.827v58.88
	c58.88-23.893,59.733-60.587,59.733-62.293v-42.667C307.2,232.107,290.133,250.027,256,262.827z M187.733,260.267
	c0,1.707,0.853,37.547,59.733,62.293v-58.88c-34.133-13.653-51.2-30.72-59.733-45.227V260.267z M366.933,209.067
	c0,1.707,0.853,37.547,59.733,62.293v-58.88c-34.133-13.653-51.2-30.72-59.733-45.227V209.067z M435.2,211.627v58.88
	c58.88-23.893,59.733-60.587,59.733-62.293v-42.667C486.4,180.907,469.333,198.827,435.2,211.627z M256,194.56v58.88
	c58.88-23.893,59.733-60.587,59.733-62.293V148.48C307.2,163.84,290.133,181.76,256,194.56z M187.733,192
	c0,1.707,0.853,37.547,59.733,62.293v-58.88c-34.133-13.653-51.2-30.72-59.733-45.227V192z M256,126.293v58.88
	c58.88-23.893,59.733-60.587,59.733-62.293V80.213C307.2,95.573,290.133,113.493,256,126.293z M187.733,123.733
	c0,1.707,0.853,37.547,59.733,62.293v-58.88c-34.133-13.653-51.2-30.72-59.733-45.227V123.733z M106.667,503.467H4.267
	C1.707,503.467,0,501.76,0,499.2c0-2.56,1.707-4.267,4.267-4.267h64v-78.507C0.853,389.973,0,347.307,0,345.6V123.733
	c0-2.56,1.707-4.267,4.267-4.267s4.267,1.707,4.267,4.267V140.8c0,1.707,0.853,37.547,59.733,62.293V89.6
	c0-2.56,1.707-4.267,4.267-4.267c2.56,0,4.267,1.707,4.267,4.267v113.493c58.88-23.893,59.733-60.587,59.733-62.293v-17.067
	c0-2.56,1.707-4.267,4.267-4.267c2.56,0,4.267,1.707,4.267,4.267V140.8l0,0v68.267l0,0v68.267l0,0V345.6
	c0,1.707-0.853,44.373-68.267,70.827v78.507h29.867c2.56,0,4.267,1.707,4.267,4.267C110.933,501.76,109.227,503.467,106.667,503.467
	z M76.8,348.16v58.88c58.88-23.893,59.733-60.587,59.733-62.293V302.08C128,317.44,110.933,335.36,76.8,348.16z M8.533,345.6
	c0,1.707,0.853,37.547,59.733,62.293v-58.88c-34.133-13.653-51.2-30.72-59.733-45.227V345.6z M76.8,279.893v58.88
	c58.88-23.893,59.733-60.587,59.733-62.293v-42.667C128,249.173,110.933,267.093,76.8,279.893z M8.533,277.333
	c0,1.707,0.853,37.547,59.733,62.293v-58.88c-34.133-13.653-51.2-30.72-59.733-45.227V277.333z M76.8,211.627v58.88
	c58.88-23.893,59.733-60.587,59.733-62.293v-42.667C128,180.907,110.933,198.827,76.8,211.627z M8.533,209.067
	c0,1.707,0.853,37.547,59.733,62.293v-58.88c-34.133-13.653-51.2-30.72-59.733-45.227V209.067z"/>
<g>
</g>
<g>
</g>
<g>
</g>
<g>
</g>
<g>
</g>
<g>
</g>
<g>
</g>
<g>
</g>
<g>
</g>
<g>
</g>
<g>
</g>
<g>
</g>
<g>
</g>
<g>
</g>
<g>
</g>
</svg>
