<?xml version="1.0" encoding="iso-8859-1"?>
<!-- Generator: Adobe Illustrator 21.0.0, SVG Export Plug-In . SVG Version: 6.00 Build 0)  -->
<svg version="1.1" id="Layer_1" xmlns="http://www.w3.org/2000/svg" xmlns:xlink="http://www.w3.org/1999/xlink" x="0px" y="0px"
	 viewBox="483 141 512 512" style="enable-background:new 483 141 512 512;" xml:space="preserve">
<circle style="fill:#FFD28B;" cx="743" cy="396.698" r="249.698"/>
<path style="fill:#FFFFFF;" d="M520.083,396.698c126.818,153.6,319.015,153.6,445.834,0
	C839.099,243.098,646.902,243.098,520.083,396.698z"/>
<path d="M743,520.366c-85.071,0-166.203-41.748-229.218-118.154c-2.363-3.151-2.363-7.089,0-10.24
	C576.797,315.566,657.929,273.818,743,273.818s166.203,41.748,229.218,118.154c2.363,3.151,2.363,7.089,0,10.24
	C909.203,477.831,828.071,520.366,743,520.366z M530.323,396.698C589.4,466.015,665.018,504.612,743,504.612
	s153.6-37.809,212.677-107.914C896.6,327.382,820.982,288.785,743,288.785S589.4,327.382,530.323,396.698z"/>
<circle cx="743" cy="396.698" r="108.702"/>
<circle style="fill:#173651;" cx="743" cy="396.698" r="51.988"/>
<ellipse style="fill:#FFFFFF;" cx="778.446" cy="362.828" rx="16.542" ry="15.754"/>
<g>
	
		<rect x="528.141" y="448.088" transform="matrix(0.8091 -0.5876 0.5876 0.8091 -164.7028 401.7045)" style="fill:#173651;" width="15.753" height="12.603"/>
	
		<rect x="942.119" y="332.692" transform="matrix(0.809 -0.5878 0.5878 0.809 -17.816 623.1567)" style="fill:#173651;" width="15.754" height="12.603"/>
	
		<rect x="585.027" y="504.612" transform="matrix(0.5877 -0.8091 0.8091 0.5877 -168.9127 690.3654)" style="fill:#173651;" width="15.754" height="12.603"/>
	
		<rect x="885.867" y="276.613" transform="matrix(0.5878 -0.809 0.809 0.5878 139.5194 839.6589)" style="fill:#173651;" width="15.754" height="12.603"/>
	
		<rect x="656.428" y="540.469" transform="matrix(0.3091 -0.951 0.951 0.3091 -61.0308 1009.53)" style="fill:#173651;" width="15.753" height="12.603"/>
	
		<rect x="813.815" y="240.317" transform="matrix(0.309 -0.9511 0.9511 0.309 333.2484 951.8994)" style="fill:#173651;" width="15.754" height="12.604"/>
	<rect x="736.698" y="551.874" style="fill:#173651;" width="12.603" height="15.754"/>
	<rect x="736.698" y="225.769" style="fill:#173651;" width="12.603" height="15.754"/>
	
		<rect x="815.547" y="539.309" transform="matrix(0.951 -0.3091 0.3091 0.951 -128.8913 280.838)" style="fill:#173651;" width="12.603" height="15.753"/>
	
		<rect x="657.845" y="238.319" transform="matrix(0.9511 -0.309 0.309 0.9511 -43.5722 217.2614)" style="fill:#173651;" width="12.604" height="15.754"/>
	
		<rect x="887.29" y="502.82" transform="matrix(0.809 -0.5878 0.5878 0.809 -129.5172 622.7966)" style="fill:#173651;" width="12.603" height="15.754"/>
	
		<rect x="586.078" y="274.788" transform="matrix(0.8092 -0.5875 0.5875 0.8092 -53.0523 401.9579)" style="fill:#173651;" width="12.603" height="15.754"/>
	
		<rect x="943.821" y="445.947" transform="matrix(0.5878 -0.809 0.809 0.5878 24.4923 955.7178)" style="fill:#173651;" width="12.603" height="15.754"/>
	
		<rect x="530.026" y="331.054" transform="matrix(0.5876 -0.8091 0.8091 0.5876 -53.0721 573.7269)" style="fill:#173651;" width="12.603" height="15.753"/>
</g>
</svg>
